<svg xmlns="http://www.w3.org/2000/svg" width="200" height="60" viewBox="0 0 200 60">
  <g id="apple-app-store" transform="translate(0 -923.3)">
    <path id="Path_542" data-name="Path 542" d="M7.731,923.3H192.269A7.683,7.683,0,0,1,200,930.927v44.747a7.683,7.683,0,0,1-7.731,7.627H7.731A7.683,7.683,0,0,1,0,975.673V930.927A7.683,7.683,0,0,1,7.731,923.3Z" transform="translate(0)" fill="#fff"/>
    <g id="Group_5762" data-name="Group 5762" transform="translate(10.816 933.621)">
      <path id="Path_543" data-name="Path 543" d="M131.876,1167.687c-3.25,5.639-1.184,14.2,2.41,19.386,1.794,2.595,3.61,4.923,6.1,4.923.046,0,.094,0,.142,0a7.518,7.518,0,0,0,2.83-.754,7.747,7.747,0,0,1,3.353-.795,7.036,7.036,0,0,1,3.19.768,6.752,6.752,0,0,0,3.057.733c2.8-.052,4.522-2.565,6.04-4.782a21.141,21.141,0,0,0,2.646-5.421l.011-.034a.315.315,0,0,0-.168-.386l-.022-.01a8.032,8.032,0,0,1-4.867-7.355,8.267,8.267,0,0,1,3.907-6.912l.031-.02a.317.317,0,0,0,.139-.2.314.314,0,0,0-.049-.241,9.09,9.09,0,0,0-7.151-3.883,6.151,6.151,0,0,0-.624-.031,12.464,12.464,0,0,0-4.489,1.121,7.218,7.218,0,0,1-2.15.643,7.031,7.031,0,0,1-2.224-.65,10.781,10.781,0,0,0-3.92-1c-.034,0-.066,0-.1,0A9.611,9.611,0,0,0,131.876,1167.687Z" transform="translate(-130.254 -1153.557)"/>
      <path id="Path_544" data-name="Path 544" d="M322.348,1052.917a8.773,8.773,0,0,0-5.794,2.973,8.219,8.219,0,0,0-2.082,6.1.317.317,0,0,0,.288.273c.135.01.271.016.407.016a7.427,7.427,0,0,0,5.469-2.806,8.67,8.67,0,0,0,2.038-6.272A.317.317,0,0,0,322.348,1052.917Z" transform="translate(-299.129 -1052.917)"/>
    </g>
    <g id="Group_5765" data-name="Group 5765" transform="translate(53.779 932.9)">
      <g id="Group_5763" data-name="Group 5763" transform="translate(2.783)">
        <path id="Path_545" data-name="Path 545" d="M685.17,1050.961h3.767a5.512,5.512,0,0,1,2.631.612,4.467,4.467,0,0,1,1.789,1.693,5.031,5.031,0,0,1,0,4.909,4.469,4.469,0,0,1-1.789,1.693,5.516,5.516,0,0,1-2.631.612H685.17v-9.52Zm3.713,8.895a4.964,4.964,0,0,0,2.326-.524,3.742,3.742,0,0,0,1.55-1.462,4.517,4.517,0,0,0,0-4.3,3.753,3.753,0,0,0-1.55-1.462,4.973,4.973,0,0,0-2.326-.524h-3.019v8.269h3.019Z" transform="translate(-685.17 -1050.39)"/>
        <path id="Path_546" data-name="Path 546" d="M810.244,1086.207a3.324,3.324,0,0,1-1.271-1.285,3.958,3.958,0,0,1,0-3.713,3.337,3.337,0,0,1,1.271-1.285,3.8,3.8,0,0,1,3.632,0,3.326,3.326,0,0,1,1.271,1.285,3.958,3.958,0,0,1,0,3.713,3.329,3.329,0,0,1-1.271,1.285,3.8,3.8,0,0,1-3.632,0Zm3.277-.531a2.727,2.727,0,0,0,1.02-1.061,3.4,3.4,0,0,0,0-3.1,2.739,2.739,0,0,0-1.02-1.061,3,3,0,0,0-2.924,0,2.733,2.733,0,0,0-1.02,1.061,3.4,3.4,0,0,0,0,3.1,2.737,2.737,0,0,0,1.02,1.061,3,3,0,0,0,2.924,0Z" transform="translate(-798.269 -1076.523)"/>
        <path id="Path_547" data-name="Path 547" d="M912.671,1080.12l-2.693,7.1h-.639l-2.394-6.161-2.407,6.161h-.625l-2.693-7.1h.653l2.366,6.338,2.42-6.338h.585l2.407,6.324,2.394-6.324h.625Z" transform="translate(-883.28 -1077.128)"/>
        <path id="Path_548" data-name="Path 548" d="M1063.706,1080.236a3.021,3.021,0,0,1,.776,2.23v4.148h-.68v-4.094a2.52,2.52,0,0,0-.605-1.823,2.247,2.247,0,0,0-1.693-.625,2.609,2.609,0,0,0-1.972.748,2.779,2.779,0,0,0-.721,2.013v3.781h-.68v-7.1h.653v1.537a2.705,2.705,0,0,1,1.1-1.17,3.376,3.376,0,0,1,1.72-.422,2.848,2.848,0,0,1,2.108.776Z" transform="translate(-1027.162 -1076.523)"/>
        <path id="Path_549" data-name="Path 549" d="M1168.36,1044.09h.68v10.091h-.68Z" transform="translate(-1128.239 -1044.09)"/>
        <path id="Path_550" data-name="Path 550" d="M1203.5,1086.207a3.323,3.323,0,0,1-1.271-1.285,3.957,3.957,0,0,1,0-3.713,3.338,3.338,0,0,1,1.271-1.285,3.8,3.8,0,0,1,3.632,0,3.333,3.333,0,0,1,1.272,1.285,3.959,3.959,0,0,1,0,3.713,3.326,3.326,0,0,1-1.272,1.285,3.8,3.8,0,0,1-3.632,0Zm3.277-.531a2.734,2.734,0,0,0,1.02-1.061,3.4,3.4,0,0,0,0-3.1,2.74,2.74,0,0,0-1.02-1.061,3,3,0,0,0-2.925,0,2.733,2.733,0,0,0-1.02,1.061,3.4,3.4,0,0,0,0,3.1,2.738,2.738,0,0,0,1.02,1.061,3,3,0,0,0,2.925,0Z" transform="translate(-1158.874 -1076.523)"/>
        <path id="Path_551" data-name="Path 551" d="M1309.689,1080.133a2.606,2.606,0,0,1,.708,1.979v4.5h-.653v-1.265a2.361,2.361,0,0,1-.993.972,3.3,3.3,0,0,1-1.564.347,2.88,2.88,0,0,1-1.87-.558,1.928,1.928,0,0,1-.054-2.9,3.039,3.039,0,0,1,2.019-.551h2.435v-.572a2,2,0,0,0-.537-1.51,2.18,2.18,0,0,0-1.571-.516,3.775,3.775,0,0,0-1.354.245,3.408,3.408,0,0,0-1.1.653l-.34-.49a3.782,3.782,0,0,1,1.279-.741,4.636,4.636,0,0,1,1.564-.265,2.825,2.825,0,0,1,2.027.673Zm-.9,5.569a2.482,2.482,0,0,0,.932-1.183v-1.333h-2.42a2.406,2.406,0,0,0-1.516.381,1.275,1.275,0,0,0-.469,1.047,1.332,1.332,0,0,0,.516,1.094,2.325,2.325,0,0,0,1.456.4,2.672,2.672,0,0,0,1.5-.408Z" transform="translate(-1253.194 -1076.523)"/>
        <path id="Path_552" data-name="Path 552" d="M1405.726,1044.09v10.091h-.667v-1.673a3.058,3.058,0,0,1-1.183,1.279,3.342,3.342,0,0,1-1.727.449,3.581,3.581,0,0,1-1.8-.463,3.308,3.308,0,0,1-1.258-1.279,3.755,3.755,0,0,1-.456-1.863,3.8,3.8,0,0,1,.456-1.87,3.254,3.254,0,0,1,1.258-1.279,3.569,3.569,0,0,1,1.8-.456,3.2,3.2,0,0,1,2.9,1.7v-4.637Zm-2.074,9.153a2.732,2.732,0,0,0,1.02-1.061,3.4,3.4,0,0,0,0-3.1,2.737,2.737,0,0,0-1.02-1.061,3,3,0,0,0-2.924,0,2.732,2.732,0,0,0-1.02,1.061,3.4,3.4,0,0,0,0,3.1,2.739,2.739,0,0,0,1.02,1.061,2.995,2.995,0,0,0,2.924,0Z" transform="translate(-1339.397 -1044.09)"/>
        <path id="Path_553" data-name="Path 553" d="M1553.034,1086.207a3.323,3.323,0,0,1-1.271-1.285,3.957,3.957,0,0,1,0-3.713,3.336,3.336,0,0,1,1.271-1.285,3.8,3.8,0,0,1,3.632,0,3.334,3.334,0,0,1,1.272,1.285,3.959,3.959,0,0,1,0,3.713,3.326,3.326,0,0,1-1.272,1.285,3.8,3.8,0,0,1-3.632,0Zm3.277-.531a2.734,2.734,0,0,0,1.02-1.061,3.4,3.4,0,0,0,0-3.1,2.74,2.74,0,0,0-1.02-1.061,3,3,0,0,0-2.925,0,2.733,2.733,0,0,0-1.02,1.061,3.4,3.4,0,0,0,0,3.1,2.738,2.738,0,0,0,1.02,1.061,3,3,0,0,0,2.925,0Z" transform="translate(-1479.381 -1076.523)"/>
        <path id="Path_554" data-name="Path 554" d="M1667.756,1080.236a3.02,3.02,0,0,1,.776,2.23v4.148h-.68v-4.094a2.52,2.52,0,0,0-.605-1.823,2.247,2.247,0,0,0-1.693-.625,2.609,2.609,0,0,0-1.972.748,2.778,2.778,0,0,0-.721,2.013v3.781h-.68v-7.1h.653v1.537a2.7,2.7,0,0,1,1.1-1.17,3.377,3.377,0,0,1,1.72-.422,2.848,2.848,0,0,1,2.108.776Z" transform="translate(-1581.054 -1076.523)"/>
        <path id="Path_555" data-name="Path 555" d="M1805.112,1069.651a1.7,1.7,0,0,1-.646.374,2.534,2.534,0,0,1-.81.13,1.761,1.761,0,0,1-1.931-1.931v-4.637h-1.305V1063h1.305v-1.55h.68V1063h2.258v.585h-2.258v4.57a1.5,1.5,0,0,0,.333,1.054,1.278,1.278,0,0,0,.987.36,1.592,1.592,0,0,0,1.1-.394Z" transform="translate(-1707.816 -1060.008)"/>
        <path id="Path_556" data-name="Path 556" d="M1885.276,1047.8a3.02,3.02,0,0,1,.775,2.23v4.148h-.68v-4.094a2.521,2.521,0,0,0-.605-1.823,2.247,2.247,0,0,0-1.693-.625,2.609,2.609,0,0,0-1.972.748,2.779,2.779,0,0,0-.721,2.013v3.781h-.68V1044.09h.68v4.475a2.609,2.609,0,0,1,1.088-1.136,3.441,3.441,0,0,1,1.7-.4,2.848,2.848,0,0,1,2.108.776Z" transform="translate(-1780.513 -1044.09)"/>
        <path id="Path_557" data-name="Path 557" d="M1987.541,1083.219h-6.106a2.965,2.965,0,0,0,.422,1.476,2.7,2.7,0,0,0,1.068,1,3.211,3.211,0,0,0,1.516.354,3.251,3.251,0,0,0,1.285-.252,2.507,2.507,0,0,0,.986-.742l.395.448a3.024,3.024,0,0,1-1.163.857,4.051,4.051,0,0,1-3.407-.164,3.343,3.343,0,0,1-1.3-1.279,3.668,3.668,0,0,1-.469-1.863,3.835,3.835,0,0,1,.442-1.857,3.265,3.265,0,0,1,1.218-1.285,3.515,3.515,0,0,1,3.474-.007,3.242,3.242,0,0,1,1.211,1.271,3.822,3.822,0,0,1,.442,1.85l-.013.19Zm-4.719-2.836a2.538,2.538,0,0,0-.959.938,3.067,3.067,0,0,0-.415,1.367h5.44a2.86,2.86,0,0,0-.408-1.36,2.639,2.639,0,0,0-2.312-1.278A2.721,2.721,0,0,0,1982.822,1080.383Z" transform="translate(-1873.19 -1076.514)"/>
      </g>
      <g id="Group_5764" data-name="Group 5764" transform="translate(0 18.4)">
        <path id="Path_558" data-name="Path 558" d="M664.5,1281h-8.135l-1.6,3.765H651.65l7.321-16.269h2.975l7.344,16.269H666.13Zm-1-2.371-3.068-7.112-3.045,7.112Z" transform="translate(-651.65 -1268.267)"/>
        <path id="Path_559" data-name="Path 559" d="M895.772,1314.08a5.7,5.7,0,0,1,2.243,2.231,7.218,7.218,0,0,1,0,6.659,5.679,5.679,0,0,1-2.243,2.243,6.583,6.583,0,0,1-3.242.791,5.011,5.011,0,0,1-3.974-1.673v6.02H885.65v-16.92h2.766v1.627a4.493,4.493,0,0,1,1.778-1.325,6.009,6.009,0,0,1,2.336-.442,6.593,6.593,0,0,1,3.242.791Zm-.93,8.367a4.34,4.34,0,0,0,0-5.625,3.514,3.514,0,0,0-2.638-1.069,3.738,3.738,0,0,0-1.882.477,3.439,3.439,0,0,0-1.324,1.36,4.527,4.527,0,0,0,0,4.09,3.451,3.451,0,0,0,1.324,1.36,3.731,3.731,0,0,0,1.882.477A3.511,3.511,0,0,0,894.842,1322.447Z" transform="translate(-866.22 -1309.338)"/>
        <path id="Path_560" data-name="Path 560" d="M1087.782,1314.08a5.7,5.7,0,0,1,2.243,2.231,7.219,7.219,0,0,1,0,6.659,5.682,5.682,0,0,1-2.243,2.243,6.584,6.584,0,0,1-3.242.791,5.01,5.01,0,0,1-3.974-1.673v6.02h-2.905v-16.92h2.766v1.627a4.494,4.494,0,0,1,1.778-1.325,6.007,6.007,0,0,1,2.336-.442,6.594,6.594,0,0,1,3.242.791Zm-.93,8.367a4.339,4.339,0,0,0,0-5.625,3.512,3.512,0,0,0-2.638-1.069,3.739,3.739,0,0,0-1.883.477,3.436,3.436,0,0,0-1.324,1.36,4.527,4.527,0,0,0,0,4.09,3.45,3.45,0,0,0,1.324,1.36,3.732,3.732,0,0,0,1.883.477A3.51,3.51,0,0,0,1086.852,1322.447Z" transform="translate(-1042.286 -1309.338)"/>
        <path id="Path_561" data-name="Path 561" d="M1336.538,1281.89a7.587,7.587,0,0,1-2.777-1.417l1.046-2.347a8.223,8.223,0,0,0,2.452,1.29,8.9,8.9,0,0,0,2.917.5,5.04,5.04,0,0,0,2.708-.581,1.761,1.761,0,0,0,.9-1.534,1.486,1.486,0,0,0-.5-1.151,3.518,3.518,0,0,0-1.266-.709q-.767-.255-2.092-.581a24.2,24.2,0,0,1-3.01-.883,4.949,4.949,0,0,1-1.975-1.382,3.723,3.723,0,0,1-.825-2.545,4.341,4.341,0,0,1,.733-2.452,4.952,4.952,0,0,1,2.208-1.754,8.951,8.951,0,0,1,3.615-.651,11.7,11.7,0,0,1,2.929.372,8.1,8.1,0,0,1,2.487,1.07l-.953,2.347a9.435,9.435,0,0,0-2.231-.953,8.351,8.351,0,0,0-2.254-.326,4.711,4.711,0,0,0-2.661.6,1.864,1.864,0,0,0-.872,1.6,1.446,1.446,0,0,0,.5,1.138,3.6,3.6,0,0,0,1.266.7q.767.257,2.092.581a22.019,22.019,0,0,1,2.975.872,5.1,5.1,0,0,1,1.987,1.383,3.648,3.648,0,0,1,.825,2.51,4.288,4.288,0,0,1-.732,2.44,4.979,4.979,0,0,1-2.22,1.743,9.033,9.033,0,0,1-3.625.651,12.416,12.416,0,0,1-3.638-.535Z" transform="translate(-1277.121 -1265.69)"/>
        <path id="Path_562" data-name="Path 562" d="M1512.221,1296.4a3.431,3.431,0,0,1-1.243.628,5.6,5.6,0,0,1-1.545.209,4.384,4.384,0,0,1-3.161-1.07,4.112,4.112,0,0,1-1.116-3.115v-5.974h-2.045v-2.324h2.045v-2.836h2.905v2.836h3.324v2.324h-3.324v5.9a1.96,1.96,0,0,0,.442,1.383,1.655,1.655,0,0,0,1.278.477,2.55,2.55,0,0,0,1.627-.511l.814,2.068Z" transform="translate(-1432.409 -1280.573)"/>
        <path id="Path_563" data-name="Path 563" d="M1627.518,1325.17a5.93,5.93,0,0,1-2.359-2.266,6.4,6.4,0,0,1-.849-3.289,6.33,6.33,0,0,1,.849-3.277,5.953,5.953,0,0,1,2.359-2.255,7.046,7.046,0,0,1,3.394-.814,7.14,7.14,0,0,1,3.417.814,5.954,5.954,0,0,1,2.359,2.255,6.775,6.775,0,0,1,0,6.566,5.931,5.931,0,0,1-2.359,2.266,7.094,7.094,0,0,1-3.417.814A6.993,6.993,0,0,1,1627.518,1325.17Zm6.043-2.743a4.3,4.3,0,0,0,0-5.625,3.551,3.551,0,0,0-2.649-1.069,3.509,3.509,0,0,0-2.638,1.069,4.34,4.34,0,0,0,0,5.625,3.512,3.512,0,0,0,2.638,1.07A3.547,3.547,0,0,0,1633.561,1322.428Z" transform="translate(-1543.546 -1309.319)"/>
        <path id="Path_564" data-name="Path 564" d="M1824.333,1313.28v2.766a3.676,3.676,0,0,0-.674-.07,3.51,3.51,0,0,0-2.65.988,3.939,3.939,0,0,0-.953,2.847v6.02h-2.905v-12.411h2.766v1.813q1.255-1.952,4.416-1.952Z" transform="translate(-1720.373 -1309.328)"/>
        <path id="Path_565" data-name="Path 565" d="M1932.245,1320.546h-9.738a3.377,3.377,0,0,0,1.336,2.173,4.38,4.38,0,0,0,2.685.8,4.526,4.526,0,0,0,3.37-1.348l1.557,1.789a5.239,5.239,0,0,1-2.115,1.51,8.38,8.38,0,0,1-6.485-.3,5.859,5.859,0,0,1-2.406-2.266,6.835,6.835,0,0,1-.023-6.555,5.847,5.847,0,0,1,2.289-2.266,6.68,6.68,0,0,1,3.3-.814,6.469,6.469,0,0,1,3.242.8,5.681,5.681,0,0,1,2.231,2.255,6.836,6.836,0,0,1,.8,3.359Q1932.291,1319.988,1932.245,1320.546Zm-8.588-4.125a3.469,3.469,0,0,0-1.173,2.2h7.042a3.394,3.394,0,0,0-3.51-3.022A3.474,3.474,0,0,0,1923.656,1316.42Z" transform="translate(-1814.316 -1309.319)"/>
      </g>
    </g>
  </g>
</svg>
