<svg id="google-app-store" xmlns="http://www.w3.org/2000/svg" width="200" height="60" viewBox="0 0 200 60">
  <path id="Path_566" data-name="Path 566" d="M7.731,0H192.269A7.683,7.683,0,0,1,200,7.627V52.373A7.683,7.683,0,0,1,192.269,60H7.731A7.683,7.683,0,0,1,0,52.373V7.627A7.683,7.683,0,0,1,7.731,0Z" fill="#fff"/>
  <g id="Group_5768" data-name="Group 5768" transform="translate(53.097 10.568)">
    <g id="Group_5766" data-name="Group 5766" transform="translate(1.16)">
      <path id="Path_567" data-name="Path 567" d="M667.682,134.521h-5.531l-1.213,2.684h-.749l4.386-9.535h.694l4.386,9.535h-.749l-1.226-2.684Zm-.259-.585-2.507-5.5-2.492,5.5Z" transform="translate(-660.19 -127.097)"/>
      <path id="Path_568" data-name="Path 568" d="M778.2,156.82l-3.215,7.111h-.694l-3.2-7.111h.722l2.833,6.361,2.861-6.361Z" transform="translate(-761.867 -153.823)"/>
      <path id="Path_569" data-name="Path 569" d="M869.187,156.844a2.61,2.61,0,0,1,.709,1.982v4.509h-.654v-1.267a2.366,2.366,0,0,1-.995.974,3.3,3.3,0,0,1-1.567.348,2.885,2.885,0,0,1-1.873-.559,1.932,1.932,0,0,1-.054-2.908,3.045,3.045,0,0,1,2.023-.551h2.438V158.8a2,2,0,0,0-.538-1.512,2.183,2.183,0,0,0-1.573-.517,3.786,3.786,0,0,0-1.356.245,3.42,3.42,0,0,0-1.1.654l-.34-.491a3.788,3.788,0,0,1,1.281-.743,4.648,4.648,0,0,1,1.567-.265,2.83,2.83,0,0,1,2.03.674Zm-.906,5.578a2.487,2.487,0,0,0,.933-1.185V159.9H866.79a2.409,2.409,0,0,0-1.519.382,1.277,1.277,0,0,0-.47,1.049,1.337,1.337,0,0,0,.517,1.1,2.33,2.33,0,0,0,1.458.4,2.678,2.678,0,0,0,1.505-.408Z" transform="translate(-847.16 -153.227)"/>
      <path id="Path_570" data-name="Path 570" d="M964.854,123.687a.516.516,0,0,1-.164-.388.559.559,0,0,1,.559-.559.551.551,0,0,1,.4.156.517.517,0,0,1,.164.388.559.559,0,0,1-.559.559A.551.551,0,0,1,964.854,123.687Zm.054,1.887h.681v7.111h-.681Z" transform="translate(-939.366 -122.577)"/>
      <path id="Path_571" data-name="Path 571" d="M1010.06,120.78h.681v10.107h-.681Z" transform="translate(-980.963 -120.78)"/>
      <path id="Path_572" data-name="Path 572" d="M1050.177,156.844a2.61,2.61,0,0,1,.709,1.982v4.509h-.654v-1.267a2.366,2.366,0,0,1-.995.974,3.3,3.3,0,0,1-1.567.348,2.885,2.885,0,0,1-1.873-.559,1.932,1.932,0,0,1-.054-2.908,3.045,3.045,0,0,1,2.023-.551h2.438V158.8a2,2,0,0,0-.538-1.512,2.184,2.184,0,0,0-1.573-.517,3.786,3.786,0,0,0-1.356.245,3.408,3.408,0,0,0-1.1.654l-.34-.491a3.787,3.787,0,0,1,1.281-.743,4.647,4.647,0,0,1,1.567-.265,2.83,2.83,0,0,1,2.03.674Zm-.906,5.578a2.487,2.487,0,0,0,.933-1.185V159.9h-2.425a2.409,2.409,0,0,0-1.519.382,1.276,1.276,0,0,0-.47,1.049,1.337,1.337,0,0,0,.517,1.1,2.33,2.33,0,0,0,1.458.4,2.678,2.678,0,0,0,1.505-.408Z" transform="translate(-1013.098 -153.227)"/>
      <path id="Path_573" data-name="Path 573" d="M1153.667,124.179a3.257,3.257,0,0,1,1.26,1.281,3.8,3.8,0,0,1,.457,1.873,3.761,3.761,0,0,1-.457,1.866,3.318,3.318,0,0,1-1.26,1.281,3.538,3.538,0,0,1-1.8.463,3.245,3.245,0,0,1-1.723-.457,3.1,3.1,0,0,1-1.192-1.273v1.676h-.654V120.78h.681V125.4a3.064,3.064,0,0,1,1.185-1.233,3.328,3.328,0,0,1,1.7-.442,3.575,3.575,0,0,1,1.8.457Zm-.368,5.769a2.725,2.725,0,0,0,1.029-1.063,3.408,3.408,0,0,0,0-3.105,2.721,2.721,0,0,0-1.029-1.063,2.864,2.864,0,0,0-1.471-.382,2.829,2.829,0,0,0-1.464.382,2.737,2.737,0,0,0-1.021,1.063,3.409,3.409,0,0,0,0,3.105,2.743,2.743,0,0,0,1.021,1.063,2.829,2.829,0,0,0,1.464.382A2.864,2.864,0,0,0,1153.3,129.948Z" transform="translate(-1107.706 -120.78)"/>
      <path id="Path_574" data-name="Path 574" d="M1258.85,120.78h.681v10.107h-.681Z" transform="translate(-1209.062 -120.78)"/>
      <path id="Path_575" data-name="Path 575" d="M1299.062,159.924h-6.116a2.97,2.97,0,0,0,.422,1.478,2.7,2.7,0,0,0,1.07,1,3.215,3.215,0,0,0,1.519.354,3.256,3.256,0,0,0,1.287-.252,2.511,2.511,0,0,0,.988-.743l.4.45a3.031,3.031,0,0,1-1.164.858,4.057,4.057,0,0,1-3.412-.164,3.354,3.354,0,0,1-1.3-1.281,3.674,3.674,0,0,1-.47-1.866,3.842,3.842,0,0,1,.442-1.86,3.266,3.266,0,0,1,1.219-1.287,3.521,3.521,0,0,1,3.48-.007,3.246,3.246,0,0,1,1.213,1.273,3.826,3.826,0,0,1,.443,1.853l-.013.19Zm-4.727-2.84a2.54,2.54,0,0,0-.961.94,3.071,3.071,0,0,0-.416,1.369h5.449a2.865,2.865,0,0,0-.408-1.362,2.645,2.645,0,0,0-2.316-1.28A2.725,2.725,0,0,0,1294.335,157.084Z" transform="translate(-1239.711 -153.208)"/>
      <path id="Path_576" data-name="Path 576" d="M1433.877,162.907a3.329,3.329,0,0,1-1.273-1.287,3.964,3.964,0,0,1,0-3.719,3.335,3.335,0,0,1,1.273-1.287,3.8,3.8,0,0,1,3.638,0,3.337,3.337,0,0,1,1.274,1.287,3.964,3.964,0,0,1,0,3.719,3.331,3.331,0,0,1-1.274,1.287,3.8,3.8,0,0,1-3.638,0Zm3.283-.531a2.737,2.737,0,0,0,1.021-1.063,3.408,3.408,0,0,0,0-3.105,2.742,2.742,0,0,0-1.021-1.063,3,3,0,0,0-2.929,0,2.736,2.736,0,0,0-1.021,1.063,3.408,3.408,0,0,0,0,3.105,2.742,2.742,0,0,0,1.021,1.063,3,3,0,0,0,2.929,0Z" transform="translate(-1367.94 -153.208)"/>
      <path id="Path_577" data-name="Path 577" d="M1548.615,156.937a3.025,3.025,0,0,1,.777,2.234v4.155h-.681v-4.1a2.524,2.524,0,0,0-.606-1.825,2.251,2.251,0,0,0-1.7-.626,2.613,2.613,0,0,0-1.975.749,2.783,2.783,0,0,0-.722,2.016v3.787h-.681v-7.111h.654v1.539a2.707,2.707,0,0,1,1.1-1.172,3.381,3.381,0,0,1,1.723-.422,2.852,2.852,0,0,1,2.112.777Z" transform="translate(-1469.608 -153.218)"/>
      <path id="Path_578" data-name="Path 578" d="M1685.96,146.364a1.7,1.7,0,0,1-.647.374,2.54,2.54,0,0,1-.811.13,1.921,1.921,0,0,1-1.43-.511,1.94,1.94,0,0,1-.5-1.424v-4.645h-1.307V139.7h1.307V138.15h.681V139.7h2.261v.585h-2.261v4.577a1.5,1.5,0,0,0,.333,1.055,1.28,1.28,0,0,0,.988.361,1.6,1.6,0,0,0,1.1-.4l.286.477Z" transform="translate(-1596.342 -136.705)"/>
      <path id="Path_579" data-name="Path 579" d="M1766.125,124.5a3.025,3.025,0,0,1,.777,2.234v4.155h-.681v-4.1a2.524,2.524,0,0,0-.606-1.826,2.251,2.251,0,0,0-1.7-.626,2.613,2.613,0,0,0-1.975.749,2.783,2.783,0,0,0-.722,2.016v3.787h-.681V120.78h.681v4.482a2.613,2.613,0,0,1,1.089-1.138,3.447,3.447,0,0,1,1.7-.4A2.852,2.852,0,0,1,1766.125,124.5Z" transform="translate(-1669.028 -120.78)"/>
      <path id="Path_580" data-name="Path 580" d="M1868.392,159.924h-6.116a2.97,2.97,0,0,0,.422,1.478,2.7,2.7,0,0,0,1.07,1,3.215,3.215,0,0,0,1.519.354,3.256,3.256,0,0,0,1.287-.252,2.512,2.512,0,0,0,.988-.743l.4.45a3.03,3.03,0,0,1-1.164.858,4.057,4.057,0,0,1-3.412-.164,3.354,3.354,0,0,1-1.3-1.281,3.672,3.672,0,0,1-.47-1.866,3.84,3.84,0,0,1,.443-1.86,3.265,3.265,0,0,1,1.219-1.287,3.521,3.521,0,0,1,3.48-.007,3.245,3.245,0,0,1,1.213,1.273,3.826,3.826,0,0,1,.443,1.853l-.013.19Zm-4.727-2.84a2.54,2.54,0,0,0-.961.94,3.07,3.07,0,0,0-.416,1.369h5.449a2.864,2.864,0,0,0-.408-1.362,2.644,2.644,0,0,0-2.316-1.28A2.725,2.725,0,0,0,1863.665,157.084Z" transform="translate(-1761.692 -153.208)"/>
    </g>
    <g id="Group_5767" data-name="Group 5767" transform="translate(0 18.078)">
      <path id="Path_581" data-name="Path 581" d="M658.252,354.909h2.8v6.347a8.9,8.9,0,0,1-2.867,1.5,11.012,11.012,0,0,1-3.367.523,9.077,9.077,0,0,1-4.39-1.058,7.855,7.855,0,0,1-3.071-2.923,8.506,8.506,0,0,1,0-8.418,7.836,7.836,0,0,1,3.083-2.923,9.194,9.194,0,0,1,4.425-1.058,9.676,9.676,0,0,1,3.64.66,7.149,7.149,0,0,1,2.753,1.934l-1.865,1.82a5.983,5.983,0,0,0-4.39-1.82,6.2,6.2,0,0,0-2.992.705,5.137,5.137,0,0,0-2.048,1.979,5.692,5.692,0,0,0-.739,2.912,5.525,5.525,0,0,0,.739,2.867,5.287,5.287,0,0,0,2.048,2,5.994,5.994,0,0,0,2.969.728,6.4,6.4,0,0,0,3.276-.819v-4.959Z" transform="translate(-646.24 -346.172)"/>
      <path id="Path_582" data-name="Path 582" d="M858.91,405.067a5.8,5.8,0,0,1-2.31-2.218,6.636,6.636,0,0,1,0-6.427,5.82,5.82,0,0,1,2.31-2.206,6.9,6.9,0,0,1,3.322-.8,6.987,6.987,0,0,1,3.344.8,5.842,5.842,0,0,1,2.31,2.206,6.636,6.636,0,0,1,0,6.427,5.8,5.8,0,0,1-2.31,2.218,6.935,6.935,0,0,1-3.344.8A6.854,6.854,0,0,1,858.91,405.067Zm5.915-2.685a4.213,4.213,0,0,0,0-5.506,3.723,3.723,0,0,0-5.175,0,4.25,4.25,0,0,0,0,5.506,3.436,3.436,0,0,0,2.582,1.046A3.471,3.471,0,0,0,864.824,402.383Z" transform="translate(-838.344 -388.823)"/>
      <path id="Path_583" data-name="Path 583" d="M1035.349,405.067a5.8,5.8,0,0,1-2.31-2.218,6.636,6.636,0,0,1,0-6.427,5.82,5.82,0,0,1,2.31-2.206,6.9,6.9,0,0,1,3.322-.8,6.987,6.987,0,0,1,3.344.8,5.843,5.843,0,0,1,2.31,2.206,6.636,6.636,0,0,1,0,6.427,5.8,5.8,0,0,1-2.31,2.218,6.936,6.936,0,0,1-3.344.8A6.854,6.854,0,0,1,1035.349,405.067Zm5.915-2.685a4.213,4.213,0,0,0,0-5.506,3.723,3.723,0,0,0-5.175,0,4.249,4.249,0,0,0,0,5.506,3.435,3.435,0,0,0,2.582,1.046A3.471,3.471,0,0,0,1041.264,402.383Z" transform="translate(-1000.11 -388.823)"/>
      <path id="Path_584" data-name="Path 584" d="M1221.7,393.555v10.306q0,6.416-6.552,6.415a12.181,12.181,0,0,1-3.322-.443,7.056,7.056,0,0,1-2.594-1.286l1.274-2.138a6.079,6.079,0,0,0,2.013,1.058,7.9,7.9,0,0,0,2.468.4,4.077,4.077,0,0,0,2.935-.91,3.719,3.719,0,0,0,.932-2.775v-.637a4.668,4.668,0,0,1-1.775,1.206,6.26,6.26,0,0,1-2.3.409,6.585,6.585,0,0,1-3.128-.739,5.55,5.55,0,0,1-2.206-2.082,5.843,5.843,0,0,1-.808-3.071,5.783,5.783,0,0,1,.808-3.06,5.5,5.5,0,0,1,2.206-2.059,6.68,6.68,0,0,1,3.128-.728,6.419,6.419,0,0,1,2.4.432,4.43,4.43,0,0,1,1.809,1.32v-1.615h2.707Zm-3.833,8.224a3.281,3.281,0,0,0,1.035-2.514,3.2,3.2,0,0,0-1.035-2.48,3.754,3.754,0,0,0-2.651-.956,3.809,3.809,0,0,0-2.673.956,3.22,3.22,0,0,0-1.035,2.48,3.3,3.3,0,0,0,1.035,2.514,3.758,3.758,0,0,0,2.673.967A3.7,3.7,0,0,0,1217.866,401.78Z" transform="translate(-1161.867 -388.823)"/>
      <path id="Path_585" data-name="Path 585" d="M1410.52,338.15h2.843v16.88h-2.843Z" transform="translate(-1346.958 -338.15)"/>
      <path id="Path_586" data-name="Path 586" d="M1489.916,400.54h-9.532a3.3,3.3,0,0,0,1.308,2.127,4.288,4.288,0,0,0,2.627.785,4.426,4.426,0,0,0,3.3-1.32l1.524,1.751a5.137,5.137,0,0,1-2.07,1.479,8.2,8.2,0,0,1-6.347-.3,5.727,5.727,0,0,1-2.354-2.218,6.693,6.693,0,0,1-.022-6.415,5.724,5.724,0,0,1,2.241-2.218,6.542,6.542,0,0,1,3.23-.8,6.338,6.338,0,0,1,3.174.785,5.562,5.562,0,0,1,2.184,2.206,6.694,6.694,0,0,1,.785,3.288q0,.3-.046.842Zm-8.406-4.038a3.4,3.4,0,0,0-1.149,2.15h6.894a3.355,3.355,0,0,0-1.115-2.138,3.7,3.7,0,0,0-4.63-.012Z" transform="translate(-1408.404 -388.823)"/>
      <path id="Path_587" data-name="Path 587" d="M1748.658,350.332a5.24,5.24,0,0,1,2.354,1.956,5.977,5.977,0,0,1,0,6.04,5.216,5.216,0,0,1-2.354,1.968,8.82,8.82,0,0,1-3.606.683h-3.594v4.6H1738.5V349.65h6.552a8.82,8.82,0,0,1,3.606.683Zm-.807,7.325a3.243,3.243,0,0,0,0-4.687,4.542,4.542,0,0,0-2.935-.819h-3.458v6.325h3.458a4.542,4.542,0,0,0,2.935-.819Z" transform="translate(-1647.661 -348.694)"/>
      <path id="Path_588" data-name="Path 588" d="M1933.81,338.15h2.844v16.88h-2.844Z" transform="translate(-1826.728 -338.15)"/>
      <path id="Path_589" data-name="Path 589" d="M2012.082,394.7a4.969,4.969,0,0,1,1.422,3.879V405.7h-2.685v-1.479a3.305,3.305,0,0,1-1.49,1.217,5.831,5.831,0,0,1-2.332.421,5.709,5.709,0,0,1-2.389-.467,3.688,3.688,0,0,1-1.581-1.3,3.288,3.288,0,0,1-.557-1.877,3.217,3.217,0,0,1,1.217-2.627,6.045,6.045,0,0,1,3.833-.99h3.14v-.182a2.492,2.492,0,0,0-.762-1.956,3.3,3.3,0,0,0-2.264-.683,6.539,6.539,0,0,0-2.013.319,4.965,4.965,0,0,0-1.672.887l-1.115-2.07a6.912,6.912,0,0,1,2.3-1.114,10.224,10.224,0,0,1,2.843-.387,5.922,5.922,0,0,1,4.107,1.286Zm-2.593,8.6a2.663,2.663,0,0,0,1.172-1.4v-1.41h-2.935q-2.457,0-2.457,1.615a1.448,1.448,0,0,0,.615,1.228,2.813,2.813,0,0,0,1.707.455,3.633,3.633,0,0,0,1.9-.489Z" transform="translate(-1889.678 -388.823)"/>
      <path id="Path_590" data-name="Path 590" d="M2162.708,395.05l-5.688,13.127a6.117,6.117,0,0,1-1.934,2.787,4.635,4.635,0,0,1-2.753.808,5.648,5.648,0,0,1-1.8-.3,3.967,3.967,0,0,1-1.456-.819l1.138-2.093a3.091,3.091,0,0,0,.967.615,2.964,2.964,0,0,0,1.126.228,1.937,1.937,0,0,0,1.24-.387,3.429,3.429,0,0,0,.9-1.3l.2-.477-5.3-12.194h2.957l3.822,8.986,3.845-8.986h2.73Z" transform="translate(-2024.094 -390.318)"/>
    </g>
  </g>
  <g id="Group_5769" data-name="Group 5769" transform="translate(11.239 9.247)">
    <path id="Path_591" data-name="Path 591" d="M426.942,308.851,419.3,304.44l-6.287,6.078,5.746,5.555,8.186-4.725a1.441,1.441,0,0,0,0-2.5Z" transform="translate(-389.901 -289.387)"/>
    <path id="Path_592" data-name="Path 592" d="M177.019,137.744l-8.413-4.856L150.17,123.44l20.823,20.129Z" transform="translate(-148.92 -123.44)"/>
    <path id="Path_593" data-name="Path 593" d="M153.85,409.4l18.162-10,7.84-4.525-5.485-5.3Z" transform="translate(-152.294 -367.437)"/>
    <path id="Path_594" data-name="Path 594" d="M135.16,133.23l-.02,40.652,21.037-20.336Z" transform="translate(-135.14 -132.416)"/>
  </g>
</svg>
